<svg xmlns="http://www.w3.org/2000/svg" viewBox="0 0 120 120">
  <defs>
    <radialGradient id="sun" cx="50%" cy="50%" r="50%">
      <stop offset="0%" stop-color="#ffe080"/>
      <stop offset="60%" stop-color="#d4820a"/>
      <stop offset="100%" stop-color="#8b4e00"/>
    </radialGradient>
  </defs>
  <!-- Rays -->
  <g fill="#e8a020" opacity="0.9">
    <polygon points="60,4 65,38 55,38"/>
    <polygon points="60,116 65,82 55,82"/>
    <polygon points="4,60 38,55 38,65"/>
    <polygon points="116,60 82,55 82,65"/>
    <polygon points="18,18 44,44 36,52"/>
    <polygon points="102,18 76,44 84,52"/>
    <polygon points="18,102 44,76 52,84"/>
    <polygon points="102,102 76,76 84,68"/>
    <polygon points="12,40 42,52 36,44"/>
    <polygon points="108,40 78,52 84,44"/>
    <polygon points="12,80 42,68 36,76"/>
    <polygon points="108,80 78,68 84,76"/>
    <polygon points="40,12 52,42 44,36"/>
    <polygon points="80,12 68,42 76,36"/>
    <polygon points="40,108 52,78 44,84"/>
    <polygon points="80,108 68,78 76,84"/>
  </g>
  <!-- Face circle -->
  <circle cx="60" cy="60" r="34" fill="url(#sun)" stroke="#c87820" stroke-width="2"/>
  <!-- Eyes -->
  <ellipse cx="52" cy="55" rx="4" ry="5" fill="#4a2800"/>
  <ellipse cx="68" cy="55" rx="4" ry="5" fill="#4a2800"/>
  <circle cx="53" cy="54" r="1.5" fill="#fff8"/>
  <circle cx="69" cy="54" r="1.5" fill="#fff8"/>
  <!-- Nose -->
  <ellipse cx="60" cy="62" rx="3" ry="2" fill="#a05010"/>
  <!-- Mouth -->
  <path d="M52,68 Q60,76 68,68" fill="none" stroke="#6a3810" stroke-width="2" stroke-linecap="round"/>
  <!-- Bindi -->
  <circle cx="60" cy="47" r="3" fill="#cc2200"/>
  <circle cx="60" cy="47" r="1.5" fill="#ff8080"/>
  <!-- Crown -->
  <path d="M42,36 Q60,28 78,36 L75,44 Q60,38 45,44Z" fill="#e8a020" stroke="#c87820" stroke-width="1"/>
  <circle cx="60" cy="30" r="3" fill="#cc2200"/>
  <circle cx="48" cy="34" r="2" fill="#cc8800"/>
  <circle cx="72" cy="34" r="2" fill="#cc8800"/>
</svg>
